<svg xmlns="http://www.w3.org/2000/svg" width="31" height="40.222" viewBox="0 0 31 40.222"><defs><style>.a{fill:#76dc94;}.b,.d{fill:#fff;}.c{fill:none;}.c,.d{stroke:#414952;stroke-miterlimit:10;}</style></defs><g transform="translate(-229 -453.149)"><g transform="translate(143 -116)"><path class="a" d="M3367.469,4444.638c-2.7-2.987-5.524-6.081-8.314-9.2a30.52,30.52,0,0,1-6.017-9.212c-3.3-8.5.561-17.607,8.8-20.775a15.51,15.51,0,0,1,20.916,12.75c.551,4.953-1.086,9.273-3.906,13.188-1.5,2.083-3.227,4.008-4.919,5.945C3371.837,4439.843,3369.574,4442.3,3367.469,4444.638Zm7.294-24.612a7.306,7.306,0,1,0-7.331,7.287A7.346,7.346,0,0,0,3374.763,4420.026Z" transform="translate(-3265.963 -3835.268)"/><circle class="b" cx="7.5" cy="7.5" r="7.5" transform="translate(94 577)"/></g><g transform="translate(-2100.514 -2994.177)"><path class="c" d="M2350.377,3599.068v1.478h-9.863v-1.478h0" transform="translate(0 -134.538)"/><path class="c" d="M2518.094,3483v-1.144a.48.48,0,0,0-.232-.411l-1.005-.6s-.161-1.88-1.41-2.041H2514.3" transform="translate(-167.716 -18.47)"/><path class="c" d="M2340.514,3464.53v-4.866h6v4.345" transform="translate(0 0)"/><circle class="d" cx="1.085" cy="1.085" r="1.085" transform="translate(2341.625 3464.922)"/><circle class="d" cx="1.085" cy="1.085" r="1.085" transform="translate(2347.068 3464.922)"/></g></g></svg>