<svg xmlns="http://www.w3.org/2000/svg" width="31" height="40.222" viewBox="0 0 31 40.222"><defs><style>.a{fill:#e55e5e;}.b{fill:#fff;}.c{fill:#414952;}</style></defs><g transform="translate(-86 -569.149)"><path class="a" d="M3367.469,4444.638c-2.7-2.987-5.524-6.081-8.314-9.2a30.52,30.52,0,0,1-6.017-9.212c-3.3-8.5.561-17.607,8.8-20.775a15.51,15.51,0,0,1,20.916,12.75c.551,4.953-1.086,9.273-3.906,13.188-1.5,2.083-3.227,4.008-4.919,5.945C3371.837,4439.843,3369.574,4442.3,3367.469,4444.638Zm7.294-24.612a7.306,7.306,0,1,0-7.331,7.287A7.346,7.346,0,0,0,3374.763,4420.026Z" transform="translate(-3265.963 -3835.268)"/><circle class="b" cx="7.5" cy="7.5" r="7.5" transform="translate(94 577)"/><g transform="translate(8.945 6.331)"><g transform="translate(87 573.141)"><path class="c" d="M4660.75,4665.005c.4.3.805.572,1.165.9a.95.95,0,0,1,.3.588c.038.652.011,1.307.016,1.96,0,.317-.106.578-.449.583-.375.006-.472-.273-.469-.6,0-.5.026-1-.012-1.5a.882.882,0,0,0-.277-.543c-.388-.336-.821-.618-1.226-.936-.353-.276-.371-.517-.059-.834q1.022-1.042,2.065-2.065c.35-.346.655-.288.889.16.2.381.371.779.591,1.147a.621.621,0,0,0,.4.244,5.8,5.8,0,0,0,.75.014.424.424,0,0,1,.458.438.419.419,0,0,1-.421.475,8.436,8.436,0,0,1-1.374-.008.778.778,0,0,1-.453-.367c-.2-.324-.356-.683-.514-1Z" transform="translate(-4656.409 -4660.998)"/><path class="c" d="M4626.811,4707.175a2.239,2.239,0,1,1-2.185-2.284A2.248,2.248,0,0,1,4626.811,4707.175Zm-3.544-.053a1.31,1.31,0,1,0,1.339-1.3A1.311,1.311,0,0,0,4623.267,4707.122Z" transform="translate(-4622.333 -4700.006)"/><path class="c" d="M4697.059,4707.163a2.238,2.238,0,1,1,2.254,2.256A2.243,2.243,0,0,1,4697.059,4707.163Zm3.544.008a1.316,1.316,0,0,0-1.314-1.327,1.323,1.323,0,0,0-.011,2.646A1.319,1.319,0,0,0,4700.6,4707.17Z" transform="translate(-4690.817 -4700.028)"/><path class="c" d="M4698.867,4647.322a.906.906,0,0,1-.894.9.9.9,0,1,1,.894-.9Z" transform="translate(-4690.822 -4646.42)"/></g></g></g></svg>