<svg id="Layer_1" data-name="Layer 1" xmlns="http://www.w3.org/2000/svg" viewBox="0 0 512 512"><defs><style>.cls-1{fill:#c42126;}.cls-2{fill:#c4c5c7;}.cls-3{fill:#1b1c20;}.cls-4{fill:#98989c;}.cls-5{fill:#eeeeef;}.cls-6{fill:#fff;}.cls-7{fill:#010101;}.cls-8{fill:#e41e26;}.cls-9{fill:#ed202a;}.cls-10{fill:#8dc8dc;}.cls-11{fill:#e73626;}.cls-12{fill:#f6af2a;}</style></defs><rect class="cls-1" x="462.35" y="302.4" width="8.04" height="8.95"/><rect class="cls-2" x="434.19" y="349.24" width="15.74" height="4.75" transform="translate(70.53 777.07) rotate(-87.37)"/><rect class="cls-2" x="423.12" y="354.65" width="4.75" height="15.74" transform="translate(-63.71 632.98) rotate(-69.37)"/><rect class="cls-2" x="422.88" y="379.27" width="15.74" height="4.75" transform="translate(-136.3 479.86) rotate(-51.37)"/><rect class="cls-2" x="448.19" y="374.68" width="4.75" height="15.74" transform="translate(-136.13 310.85) rotate(-33.37)"/><rect class="cls-2" x="449.67" y="361.62" width="15.74" height="4.75" transform="translate(-80.1 134.27) rotate(-15.37)"/><path class="cls-3" d="M351.6,377.67H298.75a83.11,83.11,0,0,1-22.88-3.2L257,369.08V351.21H374.64v3.42A23,23,0,0,1,351.6,377.67Z"/><path class="cls-3" d="M375.62,234.54l-26.36,4.81a3.47,3.47,0,0,1-4-2.79l-.06-.35a3.46,3.46,0,0,1,2.79-4l26.36-4.81Z"/><path class="cls-3" d="M441.52,324.55a44.06,44.06,0,1,0,44.06,44.06A44,44,0,0,0,441.52,324.55Zm0,66.4a22.35,22.35,0,1,1,22.35-22.34A22.34,22.34,0,0,1,441.52,391Z"/><path class="cls-4" d="M441.52,341.93a26.68,26.68,0,1,0,26.68,26.68A26.68,26.68,0,0,0,441.52,341.93Zm0,49a22.35,22.35,0,1,1,22.35-22.34A22.34,22.34,0,0,1,441.52,391Z"/><path class="cls-2" d="M455,369.37a13.69,13.69,0,1,1-13.05-14.3A13.7,13.7,0,0,1,455,369.37Z"/><path class="cls-5" d="M443.49,369.73l-.76.45a2.76,2.76,0,0,1-3.79-1l-17.43-29.64,5.54-3.25,17.43,29.63A2.77,2.77,0,0,1,443.49,369.73Z"/><rect class="cls-1" x="396.36" y="238.57" width="9.54" height="120.04" transform="translate(-96.01 244.59) rotate(-30.46)"/><path class="cls-1" d="M422.44,296.79c-32.69,0-39.6,40.14-39.6,64.89.16.15.24.24.39.39h12.26a8.28,8.28,0,0,0,8.19-6.7c3.06-16.74,17.22-26.82,34.73-26.82h44.86V323.7C478,314.5,459.58,296.79,422.44,296.79Z"/><path class="cls-6" d="M399.87,351.81c-.75,4.1-4.42,5.6-8.58,5.6h-8.38c0,1.42-.06,2.84-.07,4.27.16.15.24.24.39.39h12.26a8.28,8.28,0,0,0,8.19-6.7c3.06-16.74,17.22-26.82,34.73-26.82h44.86V323.7h-47C417.91,323.7,403.08,334.26,399.87,351.81Z"/><rect class="cls-1" x="408.52" y="243.39" width="19.28" height="25.84"/><path class="cls-3" d="M429.17,270.65h1.56a3.77,3.77,0,0,0,3.77-3.77V245.73a3.77,3.77,0,0,0-3.77-3.77h-1.56a1.38,1.38,0,0,0-1.37,1.37v25.95A1.38,1.38,0,0,0,429.17,270.65Z"/><path class="cls-5" d="M257,158.62h-4.08a6.67,6.67,0,0,1-6.24-4.24L233.22,120.3l3.76-1.49,13.46,34.09a2.66,2.66,0,0,0,2.48,1.68H257Z"/><path class="cls-3" d="M167.62,284.4H33.41V264.33H167.62a7.89,7.89,0,0,1,7.89,7.89v4.29A7.89,7.89,0,0,1,167.62,284.4Z"/><path class="cls-3" d="M137.74,368.75H360.58a4.24,4.24,0,0,0,4.25-4.24v-1.69H137.74Z"/><path class="cls-7" d="M113.14,377.31a1.65,1.65,0,1,1,0-3.29h28.34c.34,0,42.44-2.1,64.59-8.72a1.65,1.65,0,1,1,.94,3.16c-22.54,6.72-63.71,8.76-65.46,8.85Z"/><path class="cls-7" d="M113.14,381.1a1.65,1.65,0,1,1,0-3.29h28.34c.19,0,27.36-1.35,49.47-5.28a1.64,1.64,0,0,1,.57,3.24c-22.31,4-49.69,5.32-50,5.33Z"/><rect class="cls-7" x="182.92" y="369.2" width="2.81" height="8.5" transform="translate(-44.49 25.48) rotate(-7.06)"/><path class="cls-7" d="M148.77,375.79H120.43c-1.82-.09-43-2.13-65.54-8.86a1.65,1.65,0,0,1,1-3.15c22.16,6.62,64.25,8.7,64.67,8.72h28.26a1.65,1.65,0,1,1,0,3.29Z"/><rect class="cls-7" x="56.03" y="362.92" width="5.46" height="6.56"/><path class="cls-1" d="M374.64,315.81h-10a30.55,30.55,0,0,0-17.74,5.34L315,344.28v14h59.61Z"/><rect class="cls-1" x="260.4" y="291.89" width="55.03" height="60.96"/><rect class="cls-3" x="260.4" y="305.75" width="55.03" height="4.42"/><rect class="cls-1" x="178.55" y="338.29" width="81.84" height="14.56"/><path class="cls-3" d="M271.18,279.52l-7-51.23a6.36,6.36,0,0,0-6.3-5.5h-3.73a6.84,6.84,0,0,0-6.78,7.78l9.5,69.34h65.57a3.57,3.57,0,0,0,3.57-3.57v-8.76a2.86,2.86,0,0,0-2.87-2.86h-46A6,6,0,0,1,271.18,279.52Z"/><rect class="cls-5" x="257" y="120.42" width="6.79" height="223.48"/><path class="cls-5" d="M176.68,234.84a11.9,11.9,0,0,0-8.23-3H96.38v4.39h59.85v7.54h-32v3.31h32v6.27H142.92v4.38h13.31v13h4.36v-13h14.9a5.12,5.12,0,0,0,5.12-5.11v-7.1C180.61,240.85,179.28,237.25,176.68,234.84Zm-16.09,1.42h8.09a7.45,7.45,0,0,1,5,1.81,8.71,8.71,0,0,1,2.43,5.74H160.59Zm14.9,17.12h-14.9v-6.27h15.63v5.54A.73.73,0,0,1,175.49,253.38Z"/><path class="cls-3" d="M260.4,124.92H156.76a13.55,13.55,0,0,0-13.55,13.56V239.41H33.41V137.67a39.08,39.08,0,0,1,40.53-39l188.65,6.95a13.71,13.71,0,0,1,2.38.3l107.58,21.44a2.59,2.59,0,0,1,2.09,2.55v1H349Z"/><path class="cls-8" d="M421.05,232.16H395.14a8.94,8.94,0,0,1-8.59-6.43L361.6,140.11a3.53,3.53,0,0,1,3.39-4.52h.4l-2.7-4.68H349l17.39,110.34a46.84,46.84,0,0,1,0,14.76l-10.5,64.6a27.58,27.58,0,0,1-27.22,23.16H286.18A14.76,14.76,0,0,1,271.42,329V281.73a3.45,3.45,0,0,0-3.45-3.45H252.82a3.44,3.44,0,0,0-3.44,3.45V329a14.76,14.76,0,0,1-14.76,14.76H204.69a27.58,27.58,0,0,1-26.86-21.33l-9.93-42.67a34.89,34.89,0,0,0-2.7-7.53l-13.86-28a8.64,8.64,0,0,0-7.74-4.81H33.41V331.6a33.86,33.86,0,0,0,7.75,21.55l4.12,5a12.9,12.9,0,0,0,9.95,4.69H367.37a29.58,29.58,0,0,0,27.71-19.23l28.48-76.17A42.6,42.6,0,0,0,421.05,232.16Z"/><circle class="cls-3" cx="116.43" cy="369.35" r="44.06" transform="translate(-269.67 399.44) rotate(-76.96)"/><circle class="cls-4" cx="116.43" cy="369.35" r="26.68" transform="translate(-269.79 397.81) rotate(-76.72)"/><circle class="cls-2" cx="116.43" cy="369.35" r="21.34" transform="translate(-269.79 397.81) rotate(-76.72)"/><path class="cls-5" d="M131.14,369.35a14.71,14.71,0,1,1-14.71-14.71A14.71,14.71,0,0,1,131.14,369.35Z"/><path class="cls-9" d="M116.43,305.21c-32.28,0-58.48,23.4-58.68,57.21l.39.4h15a8.28,8.28,0,0,0,8.19-6.69c3.06-16.75,17.63-26.83,35.15-26.83s32.09,10.08,35.15,26.83a8.28,8.28,0,0,0,8.19,6.69h15.34C175.11,328.79,148.84,305.21,116.43,305.21Z"/><path class="cls-5" d="M320.81,362.82H187.23v-1a6.29,6.29,0,0,1,6.28-6.29h127.3c20.35,0,30.24-10.82,34.14-30.92,1.66-8.58,11.8-78.15,11.91-78.81h.65a3.41,3.41,0,0,1,3.4,3.68c-1.14,14.4-7.39,69.4-8.86,77C357.24,351.28,345.91,362.82,320.81,362.82Z"/><path class="cls-5" d="M36.51,342.67H32a5.58,5.58,0,0,1-5.58-5.58V324A5.58,5.58,0,0,1,32,318.41h4.51Z"/><path class="cls-10" d="M393.1,232.16h27.95v0l-55.67-96.55H363a3.54,3.54,0,0,0-3.39,4.52l25,85.62A8.94,8.94,0,0,0,393.1,232.16Z"/><path class="cls-3" d="M423.25,236.85H365.67l.69,4.4c0,.24.06.48.1.71h58.46A44.82,44.82,0,0,0,423.25,236.85Z"/><path class="cls-3" d="M123.13,255.1h-.37a3.84,3.84,0,0,1-3.84-3.84v-17.2h8v17.2A3.84,3.84,0,0,1,123.13,255.1Z"/><rect class="cls-11" x="116.43" y="245.46" width="13.03" height="3.31"/><path class="cls-3" d="M54.72,255.1h-.36a3.84,3.84,0,0,1-3.85-3.84v-17.2h8.06v17.2A3.84,3.84,0,0,1,54.72,255.1Z"/><rect class="cls-11" x="48.02" y="245.46" width="13.03" height="3.31"/><path class="cls-5" d="M377.59,285.8l44.34,1.38a4.2,4.2,0,0,0,4.32-4.19v-.52a4.19,4.19,0,0,0-4.32-4.19l-44.34,1.38a3,3,0,0,0-2.95,3v.06A3,3,0,0,0,377.59,285.8Z"/><rect class="cls-3" x="375.62" y="262.43" width="24.33" height="11.64" rx="2.08"/><rect class="cls-12" x="377.24" y="264.28" width="21.1" height="7.94" rx="0.97"/><path class="cls-8" d="M473.21,305.92l-9.74-1.11a7.23,7.23,0,0,1-6.4-7.18v-1.69a7.21,7.21,0,0,1,6.4-7.17l9.74-1.11Z"/><path class="cls-3" d="M474,306.74h1.08a2.61,2.61,0,0,0,2.62-2.61V289.45a2.62,2.62,0,0,0-2.62-2.62H474a1,1,0,0,0-.95.95v18A1,1,0,0,0,474,306.74Z"/></svg>