<svg id="Layer_1" data-name="Layer 1" xmlns="http://www.w3.org/2000/svg" viewBox="0 0 512 512"><defs><style>.cls-1{fill:#fec023;}.cls-2{fill:#f68a45;}.cls-3{fill:#47c0b9;}.cls-4{fill:#f17829;}.cls-5{fill:#865742;}.cls-6{fill:#714937;}.cls-7{fill:#f1a41f;}</style></defs><path class="cls-1" d="M214.08,279.53V101.69H78.9L28.23,219.2V347.32H84.47a62.9,62.9,0,0,1,111.61,0H336.17a62.92,62.92,0,0,1,111.63,0h36V279.53Z"/><rect class="cls-2" x="240" y="80.18" width="222.19" height="198.99"/><path class="cls-3" d="M142.73,224.49a15.94,15.94,0,0,0,15.89-15.89V145.11a15.94,15.94,0,0,0-15.89-15.9H120.06c-8.74,0-18.52,6.65-21.73,14.78L72.4,209.72c-3.21,8.12,1.32,14.77,10.06,14.77Z"/><path class="cls-4" d="M142.73,228.9H82.46c-5.65,0-10.45-2.29-13.17-6.28s-3.07-9.28-1-14.53l25.92-65.72c3.9-9.86,15.25-17.57,25.84-17.57h22.67A20.33,20.33,0,0,1,163,145.11V208.6A20.33,20.33,0,0,1,142.73,228.9Zm-22.67-95.27c-7,0-15.06,5.48-17.62,12L76.51,211.33c-1,2.54-1,4.78.09,6.33s3.13,2.42,5.86,2.42h60.27a11.51,11.51,0,0,0,11.48-11.48V145.11a11.5,11.5,0,0,0-11.48-11.48Z"/><circle class="cls-5" cx="391.99" cy="376.47" r="52.2" transform="translate(-151.39 387.44) rotate(-45)"/><path class="cls-6" d="M392,431.82a55.35,55.35,0,1,1,55.35-55.35A55.41,55.41,0,0,1,392,431.82Zm0-104.4A49.05,49.05,0,1,0,441,376.47,49.1,49.1,0,0,0,392,327.42Z"/><path class="cls-1" d="M392,403a26.53,26.53,0,1,1,26.53-26.52A26.55,26.55,0,0,1,392,403Z"/><path class="cls-7" d="M392,406.14a29.68,29.68,0,1,1,29.68-29.67A29.7,29.7,0,0,1,392,406.14Zm0-53.05a23.38,23.38,0,1,0,23.38,23.38A23.41,23.41,0,0,0,392,353.09Z"/><path class="cls-5" d="M192.47,376.47a52.21,52.21,0,1,1-52.19-52.2A52.19,52.19,0,0,1,192.47,376.47Z"/><path class="cls-6" d="M140.28,431.82a55.35,55.35,0,1,1,55.35-55.35A55.42,55.42,0,0,1,140.28,431.82Zm0-104.4a49.05,49.05,0,1,0,49,49.05A49.1,49.1,0,0,0,140.28,327.42Z"/><path class="cls-1" d="M140.28,403a26.53,26.53,0,1,1,26.53-26.52A26.57,26.57,0,0,1,140.28,403Z"/><path class="cls-7" d="M140.28,406.14A29.68,29.68,0,1,1,170,376.47,29.71,29.71,0,0,1,140.28,406.14Zm0-53.05a23.38,23.38,0,1,0,23.37,23.38A23.41,23.41,0,0,0,140.28,353.09Z"/><rect class="cls-7" x="40.89" y="284.89" width="437.03" height="22.43"/><rect class="cls-4" x="226.63" y="80.18" width="13.37" height="198.99"/><rect class="cls-4" x="252.8" y="80.18" width="13.38" height="198.99"/><rect class="cls-4" x="278.98" y="80.18" width="13.37" height="198.99"/><rect class="cls-4" x="305.16" y="80.18" width="13.37" height="198.99"/><rect class="cls-4" x="331.33" y="80.18" width="13.37" height="198.99"/><rect class="cls-4" x="357.49" y="80.18" width="13.37" height="198.99"/><rect class="cls-4" x="383.67" y="80.18" width="13.37" height="198.99"/><rect class="cls-4" x="409.84" y="80.18" width="13.37" height="198.99"/><rect class="cls-4" x="436.01" y="80.18" width="13.37" height="198.99"/><rect class="cls-4" x="462.19" y="80.18" width="13.37" height="198.99"/></svg>